<svg 
 xmlns="http://www.w3.org/2000/svg"
 xmlns:xlink="http://www.w3.org/1999/xlink"
 width="33px" height="34px">
<path fill-rule="evenodd"  fill="rgb(134, 200, 64)"
 d="M16.472,0.058 C25.575,0.058 32.954,7.437 32.954,16.540 C32.954,25.643 25.575,33.022 16.472,33.022 C7.370,33.022 -0.010,25.643 -0.010,16.540 C-0.010,7.437 7.370,0.058 16.472,0.058 Z"/>
<path fill-rule="evenodd"  fill="rgb(246, 231, 59)"
 d="M16.416,4.711 C22.948,4.711 28.243,10.006 28.243,16.538 C28.243,23.069 22.948,28.364 16.416,28.364 C9.885,28.364 4.590,23.069 4.590,16.538 C4.590,10.006 9.885,4.711 16.416,4.711 Z"/>
<path fill-rule="evenodd"  opacity="0.18" fill="rgb(0, 0, 0)"
 d="M17.000,-0.000 L17.000,33.000 C17.000,33.000 33.317,29.225 33.000,17.000 C32.683,4.775 23.212,1.334 17.000,-0.000 Z"/>
</svg>